<mxfile host="65bd71144e">
    <diagram id="HIP3nbAZw_EuaXWnEj3U" name="Page-1">
        <mxGraphModel dx="1086" dy="708" grid="1" gridSize="10" guides="1" tooltips="1" connect="1" arrows="1" fold="1" page="1" pageScale="1" pageWidth="850" pageHeight="1100" math="0" shadow="0">
            <root>
                <mxCell id="0"/>
                <mxCell id="1" parent="0"/>
                <mxCell id="7" value="http://ics2o.mths.ca" style="swimlane;whiteSpace=wrap;html=1;" parent="1" vertex="1">
                    <mxGeometry x="50" y="50" width="790" height="440" as="geometry"/>
                </mxCell>
                <mxCell id="9" value="&lt;font color=&quot;#99ff99&quot; style=&quot;font-size: 36px;&quot;&gt;Volume of Sphere&lt;/font&gt;" style="text;html=1;strokeColor=#E6FFCC;fillColor=none;align=center;verticalAlign=middle;whiteSpace=wrap;rounded=0;shadow=1;" parent="7" vertex="1">
                    <mxGeometry x="10" y="30" width="310" height="30" as="geometry"/>
                </mxCell>
                <mxCell id="10" value="&lt;font color=&quot;#99ff99&quot; style=&quot;font-size: 12px;&quot;&gt;Enter the Following&lt;/font&gt;" style="text;html=1;strokeColor=none;fillColor=none;align=left;verticalAlign=middle;whiteSpace=wrap;rounded=0;fontSize=36;" parent="7" vertex="1">
                    <mxGeometry x="10" y="60" width="140" height="45" as="geometry"/>
                </mxCell>
                <mxCell id="11" value="&lt;font color=&quot;#66ff66&quot;&gt;Enter radius:&lt;/font&gt;" style="text;html=1;strokeColor=none;fillColor=none;align=center;verticalAlign=middle;whiteSpace=wrap;rounded=0;fontSize=12;" parent="7" vertex="1">
                    <mxGeometry x="10" y="150" width="90" height="30" as="geometry"/>
                </mxCell>
                <mxCell id="12" value="" style="shape=partialRectangle;whiteSpace=wrap;html=1;top=0;left=0;fillColor=none;fontSize=12;" parent="7" vertex="1">
                    <mxGeometry x="105" y="150" width="100" height="20" as="geometry"/>
                </mxCell>
                <mxCell id="13" value="&lt;font style=&quot;font-size: 18px;&quot;&gt;&lt;b&gt;Enter&lt;/b&gt;&lt;/font&gt;" style="labelPosition=center;verticalLabelPosition=middle;align=center;html=1;shape=mxgraph.basic.shaded_button;dx=10;fillColor=#E6FFCC;strokeColor=none;whiteSpace=wrap;fontSize=12;" parent="7" vertex="1">
                    <mxGeometry x="10" y="210" width="100" height="60" as="geometry"/>
                </mxCell>
                <mxCell id="14" value="&lt;font color=&quot;#66ff66&quot;&gt;The Volume is:&amp;nbsp;&lt;/font&gt;" style="text;html=1;align=center;verticalAlign=middle;resizable=0;points=[];autosize=1;strokeColor=none;fillColor=none;fontSize=18;" parent="7" vertex="1">
                    <mxGeometry x="5" y="280" width="150" height="40" as="geometry"/>
                </mxCell>
                <mxCell id="16" value="" style="shape=image;verticalLabelPosition=bottom;labelBackgroundColor=default;verticalAlign=top;aspect=fixed;imageAspect=0;image=data:image/png,iVBORw0KGgoAAAANSUhEUgAAAVoAAACKCAIAAABkehW6AAAAAXNSR0IArs4c6QAAAARnQU1BAACxjwv8YQUAAAAJcEhZcwAADsMAAA7DAcdvqGQAACEMSURBVHhe7V0HlBVF1h4JgoCEQclxgEGCkkHJkuMsQYKIgCIjIy5KEIY4iCAISJAhKGEQhREJAkMY8u6Kurvusuz+btLld/Uc5fzqup6DaRe0/u9yi6a5783MC909/Z71ne/M6b6vQ3XNvV/fqq6uTlAGBgYGV2HkwMDAQMPIgYGBgYaRAwMDAw0jBwYGBhpGDgwMDDSMHBgYGGgYOTAwMNCIWzm4cEH98pfq0CG1a5fKylKZmWrZMtW9uxo2TC1YoDZvVtnZ6sABdeqU+stf1Lff6r0MDH7KiBM5+NWv1KJFaswY1bmzqlVLJSSEzcqVVbt2asQINXu2yslRX3+tj2xg8NNBDMvB+fPq+edV376qVKkbArtCBdWoESUCDzygUlPpLwSiY0c1c6Z67DE1cCBFPjarWFGNG6fGjlV9+qhmzbTRzvbt1fz5lGIYGPxEEHty8MEHas4cVbPm9bhNTFT9+6uMDGoUHDumfvGL60RLoUkTNWvWDUZwwADasUYNad+xQy1dSg2KOnWuH79MGTVhgtEFg/hHzMjBv/6l1q9Xbdtej9K771aPP662bZMhbWfPnrSNMDJ79aKDpKRIu8V9+0h3unVTpUvrM9atq+bNU//4hy6SgUGcIQbkAOnA+PHq5pspIEuUoLQfUXr0qIzeQE6fTsEsjBZPn1bly9Mxt26VPwmeOqWWL6cEpFw5rQtoocBuYBBn8LUcnDtHeTtHIJr3UIHc3BsCtUBu3y4tdq5dS0e+4w5pz4crVlDGwUVq3pwaIwYGcQOfysE//6l+9jMdda1bUzNBhKVTTE6mU0AXhD1/Zmerfv1UsWK0b5Mm6te/1sU2MIhp+E4OvvmGHvWhUXDTTdS3v2mTDEVnieMjpBs2lPZQuHu3GjRIt2Luv199+qm+BAODGIW/5GDnTurtR3TVqaM2bJDh5xJbtCDpQdov7CHy9ddVmzZU5tKl1eLF6vvv9bUYGMQc/CIHX35JfXUIqlKlVFoa9fOJqHOPc+bQeUeNkvawCCHgkQtINN57T1+UgUFswRdy8OabqmpViqXOndWePTLS3Obx4zSyIDFRnTkjfwqLubmkKcWKqVtuURs36kszMIghFLIcXLmi5s5VRYpQCGFBBFhkzMiQlgLZrx+JUbgdikG5aZNOEwYNUl99pS/TwCAmUJhy8PHHNJQIkVO7tnr1VRlXEbNBAxpcKIz5c+lSKsbQodIeGQ8fptcfcMCaNdU77+iLNTDwPwpNDv7wB8rPETM9esiRxdFwzRqSGGEskCdOUEcg7urCHg0nTlRFi1LbITtbX7KBgc9ROHKAaClVivrz09JuCKHoef/96sknpTEUNm9O2vTKK9IeDZ9/XpUsSZe5fLm+cAMDP6MQ5OD111Xx4tRfsGCBjJ/oiZt8ZGOWpk8nOZgwQdqj5ObNqmxZOvLjj6sff9Q1YGDgT3gtB4hVxAbumbhzisiJnjt20KvNwhgid+2igiUnS3v03LlTdy6OHKkuX9b1EFsYMWJEQkLC+fPn9XqMIzs7u169eriiChUqHD58WFtdQMzVm6dy8OyzFBW33qpeeknGjCOcP5/684UxdN52G+UswugI33hD1a9P196vn64KV/Hcc8/BC9PQEssDHAwXLlzQ6wWhd+/e2P7NN9/U67EMXAULAWpp9uzZkAb9w41ADCOYsRlvjMoMvbosxFy9eScHSJsRDxUrOvkQQRC335kzpTF0dulCJdy4Udod4ZEj6s476fgPPKArxD3AldmJ9fqN4F+hCHo9BMSTHEACcC15qQCDJQNALeHarVRC/xwyjBwER04O3XjLlHG4r06wRQu1ZYs0hs4ZMyhcx4+XdqcIRWjQgE4xaZKuFvfAHhw0E+Z42BjOSKl4koNQrqV169aiirB9WALKMHIQBGfO0Hs+oEs3Xqe4dSvFaqtW0u4gDx5U1arRWZYu1ZXjEjjmg7YXWCnCSn1/anKADQC9EgWMHEicP0/PFIsWpYdtIjb8xtOnaZgAUkJhd5a7dtEp4GxIlNwDoh2OGJjfcksBdz+9fhXInPl+CEAsAtvJwq2xgFU0rXnVAozYUq9c60jDAm6zrEH4ixY7/4oFyxg0i8EGVqmwEEqfH4qNwnODH0Bh7I0C7lKxI6/8n3/NJ4xxRdgAlQnwZQI4ndjFqjcUnq8FZ4RSf/HFF3qLa8AGvDFgryUG/9dgxAJXmr2e8983LLgrB7jqypXpwfvChTIq/Mm6dSlQHRwWFZRZWSSRkJ7f/EZXlBtg/xON5MCWsxVycCmAYwl/4Xl6izzkAEZetSCMvBfiE3/hptaJUAZexl/LKKLd2gDOje05BvJ3dBzh6pHoXDi1dWQrRUKxcQQ+FIxYzqvFxGVGJYjwtoB9+SC8GU7HhwUC641LwqW6uolUUv6nYAMs4Mi8PTbWP9v0F+fi02GVfypw37Dgohz8+KO6916KrgcflPHgW/LkS2vWSLvjvDosemWNGurf/9bV5Tj4DiY8D84Eo3V3YreGD1npAH5iL7e7FPtfZHIAWFHHRQJQDCv+2aHt5bSCTa9fLRXHW15tHGzAl2aPcJSTjfaoFtcSFDiapSbYPrDfkUsIoJBWZeZVb4BVKr7PA9aFcGXidNZxAM44rPPyNoGbhbJvWHBRDhYtotBq2tTTt5Wj5Lx5VGbHx0oKHj78Vf/+j9SuPSoh4VP3Hj3CRa660PXg5/unPfA4xkRsWDtaLitCiL3Q7vcMYeS97PEJwALYb6E4CyyIW71+rVR2Fwc4AsXRLMD78WtgkVhr7MoiriUf4IysJgCKZC9zoGABgRUetAY4XK0CsIiI5Ihr2PpP8SoKI+oklH3DgltycPYsPUooV44euYtg8DN37CA56NpV2p1l06btx49fdOoUDZrC6dwbwixuFMJ7AuPQgogZscoOFxh7wij2YrBRr1wDLJbRCiqEnB28IxZ4MwG+tECxCCxq0FLlA9QeyxMqylIEFCNoYYS8Bj0X72v9UzgNQflht8CXYxU78CoYoewbFlyRA0gYdxmsWiUjwSXCDZzSndKlVZUq0ugSd++mh6/udSLwPdO6UcCh7cGfl5MBwo/Fal47CqPYi8FGvXINsFhGPnheyCs7CHouILCoeW2ZD6BQHHhWTSLqsIq/vGpBHDzoucS+WM4LIjuwXwWDNwsKH2UHo0ahoJ52GcyZQ81+YYyMaN2g8I73Jp4+/cOwYVOEEeR3q5OS1H//q2vPQcCPEf9wDixwSwG3Dv3btXasXSAs5O/W+Xin3Sj2YrBRr1wDLJbRyg54NURwHuRGdsDg41h1lZcchJ4dWPuy0ORfHj67/SoYoewbFpyXg7feIv+uVcvTLoOxY9XUqdIYGVHnKL/4+ML48c8MHjypbds+u3b9024PkVlZ/9OmTe9Ro2YKO7NvXzqjSyMROHVEnPCCcB0WC9E/ZwUkFtgi3Jq9E77IqwwWlwIDj4165RpgsRstCdPrIQAXiF3sYsfgvgP81euRygGLqXXJHNL2wwLc+AL0emhywEIm2v8CXOH2umWEsm9YcFgOrlyhyQJRIZmZ0uldZbduauVKaYyMDzxA5V+06Abjww8vTE/fhju83RgiMzJ2VapUc9asl4Xd4v799NwRdGMuZsuPEWO4d2nrNbBG4Fcr9rDATmwPLeHWll5YjoifOIbtLhs0GNioV66BjmUzcqkCY9tqbwfCCkX7NnztgF3vgpbKDigLtrFvgN35PmzFMIc0YCkC6oSDM596Ywg54Aad/V/AwF5WsbGMbXA0XrUQyr5hwWE5WLOGYimfbx+5xPLlHZuCnWdSHTfuBiPkIDPzrN0SOps37/rSS78TRsGf/5xOGlFzr2BwBguIuxkAN2JHB+Bt7L6A8DC2292a77oAfuIj8F+s6i2ikAOrVCg5wgZAjLHc6C2CgWOD98JZrKsWIhK0VHaI4/D2gL1OUCS24C8Khm24ePhboPTwvvir16/JH/ZFrcKOv1x4a0csYBVH41U7Ctw3LDgpB59/Tm8rliyp9u6V7u4qT5xQlSpJY8TkV7A7d77BGI0cHDv2rbAEEg0r/kjs2bO6Mh0E+x9gf1RmAS6ODazggYtj1a4FAN/3xO7YjGMA+2IZFqzaXTboXhwheuUasCOgV66CS8XxBuAU8Pug5bcDMcAnBXBALAdGRdBSCfBxcAQ+FIoheiVQNtjxFwmIJQooobgnBz0X7ysOCA3imgG45PYmAI4AO4x6/Ubkv29YcFIOpkwhh0ayLXzdbb72mmrcWBojJlJ3XEVS0g3GcOXgueeOpKdnCWP+XLKEztumja5MAz/DkgO9Hi9wTA6+/JJmQy5RQh06JB3dbWZmypt5lCxShC7EbglLDtLSlicnt1q9+oywF0hOELBg4HMYOSgAzzxDrjx8+A3+7Q0zMtSQIdIYDatUoUETEXx24eDBf/Xt+1CvXg++8cb/iZ9C4cKFVId9++oqNfAtjBzkh//8B80/mgHxwAHp4rFInkYVbRBhL5CjRqWnpi4RxtAJAeJv0v3xj7piDfwJfq4p2v9xAGfkYN06cuLBg6V/xygHDKDLcerJZVicO5dO7cGMSQYGgXBGDho3phkNPH6g4B4ffZRictYsaQ/Kkyf/O3ToZGGMmKdPU1MFedaXX+q6NTDwDA7IwZ/+RMHTqZP07NglDz2YNEnaA7lly/lWrXqMHj1b2KNhWhqdPe7yUIMYgANykJ5O7uvGRxMKi8uX0xUV+M7FvHk7b7ut2pw5rwp7lOQp3jt31tVrYOAZHJCDGjVoHsTjx6Vbxy5ffJECMiVF2pmrVp2eNGnl8ePftWzZffPmP4hfHWGTJvRo4+OPdQ0bGHiDaOXgzTcpcnr0kA7tGXNypCV6ZmfTRXXpIu3gtm3vJSZWbtCgUUpKqvjJQfKY5bh7jGXgd0QrBzwZ+bPPSof2jDt30ivJwhgljxyhi2rRQtrBadM23nJL6Xr1Go0YMU385CD37aPsoGNHXckGBt4gWjlo25aeKRRiS2HjRtWhgzRGzyJFVL160piaurRRo7ZPPbVp5syt4ifHmZxM06J8952uZwMDDxCVHFy6RGHj+M05LC5frvr0kUaLGzbQEOYnnqBBBGBaGv1FLhN0ctQDB1Rurh6MWKEC0fpp//7Pevce06fPuIMHv7CMrpIncT15Ule1gYEHiEoOOKkeNUq6sntctYo+u5aaSu8Ct25NeUGNGhS3derQRGNiYxAbdOlC7wX17EmsWpX+du0a/BXsTp3omygVK9JfyBzSdewOrcG5tm3788SJy8T2rpIHfc+bp6vawMADRCUHiEy47NKl0pUjJhod2dl06541K/jH0d54g0bsPf44DQ146im6+Y8dSzfSnBx16pTcOGIiR6hZky5t9Wq1bBmNFBQbgDt2qJYtVa9epIaTJ1Npt2+P5DWHvHjwIBUACmVg4BmikoN27eguevSodOWwuHYtzWs2ZAhFF47WuDF9nWHkSMrwxZZBOWmSmjhRGqPn1dcWvuvde9LGjb8VPzEPHULKQE2V9HTSgt69VbNm9A3ooB2QkREpj+k+MPASUclB0aKUVwsnDpcI+wcfpG+xb9kSyR0eoRiicITFhg1/n5Bwb0rKPGHPn2jqQyOEkfnCC2FPx4p2DRKEd9/VtW1g4DYil4OPPiJnbdtWOnFQZmVRCoDUWtijJ6RkxgxpjJJz5rxSokSNhITXNm+WP0XG116jp4aVKlE+NWYMtXdOnJDbBPKhh6iGsa+BgTeIXA5OnyZnzX+iATQE0LZv2pSaAGhjO9jLYHHdOudHPdxzz4D27f+Eq9uwQf4UDVFjOOCUKfQIs0oVNWgQVUg+3Q3ImFCGRYt0hfsZK1asqFix4rlz5/S6QWwicjl46SVy1rwS9dRUkoA2bajbb/t2+av/mZJCVwc5E3anePCgmj27gDlmuYbHjdMV7lt8+umnSUlJRg7iAJHLAT9WyOsz7Q8/nGcr2p9cvHh/9er1rdX77qOrK5QpDywePkxl8P/DhTFjxiQkJBg5iANELgdDh5Kz7twpnTgW+cgji5s0uScz8y3Lwl9bWLbs+jaFwgoVaKyEn5GTkzNkyJDu3bsbOYgDRC4HHTpQwDj+8TKPuW/fxZ49H+jff/yhQ/+225Hd4OoWL75u8Yyo2J491csv03K9elQM3wLNhB49erz//vtGDuIDkfsaTygYWy2CoHzsseeFBUxNpat7+mlp94ZTp6rq1amLlD8Y+e23us79BjQTkB1cunTJyEF8IHI5qF+fZlK/4w7qRBDeHAecNIniMOh4RG+YmUmK0KABFePzz3Wd+woI/qnQLXp1xchBnCByOUCb9uabHftQasRs25bGLwlj/szN/TolZWL+Exw+8QTFYXq6tHtJKEKpUlSMDz/Ude4fQAKGDx/O8W/kIG4QuRwgNShZUnqw98QtVHxeNX9u3PjbZs06jxu3QNgFp0+nOMRfYfeY3Hfw3nu6zv2DFVfBy0YO4gaRywHc9NZbpft6z1atwui/SE/fVrly7aef3i3sgeQJIN0Y/hwWW7SgYpw5o+vcJ0DYIzWACvCqkYO4QVRyUKyYdF/vmZwcRv9/Rsaubdv+LIxByd87ePRRafeYSUlUjKwsXec+AfKChDyQlJT0qRvfpb8GPrWRHpcQuRzcdBN56v790oM9ZljZQejk7CAtTdo9JvcdvPWWrnN/wrPsAMfftGkTFiAKY8aMYaOBg4hcDkqXJk+97z7pwR6zUSNXZmqcNo2ubvJkafeSPA8l+Pe/6zr3J7xvLOTk5Fg9FwYOInI5qFOHpieAs86eLf3YS7ZpE/aThVDITxYK8bnJunXUFuMa/uQTXef+hMdygNNt3rxZrxg4isjloEkT+nYYzxpU4BdK3GP79vRZBGGMno89Rtc1ZYq0e8Px40kIihalnhEU46uvdJ37E17KAb8ulZCQYLIDNxC5HLRtS566fz/dn7FQvz59F0C4tQfs3JlupMIYPXlUYkaGtLvNrVsp7cKpExMp62nYkJZ/+EHXuQEDWuB2n+VPE5HLwcCB5Kl79pATc/CAZcrQBAdHjtzg4rHIcePocrx8Z2HOHJpaiquxWzearxHGSpVoKlcDAX5XwsiB44hcDp58khzXmqF89266UbM3I8vt2NGVJr1nHDGCLsSDNxpRb488om6/XVdd7do0zQH/xBPMIAszEMjJyTFPFtxA5HKwdi05q3hh4eWXVf/+NHiZnRvJQteuasmSaKdX9Z6DBlH53ZvvIDOT3qFGC4srCuzSRZ5u+3ayjxypK9yABx0ARgtcQuRywJNz5NWJOH8+zSxs+TrYqBHNj4b7LXYUG/uQPJuDs7MhQQImTKB6KFbserXceSd9kTHo8I2lS2kDNCLiBlZHYFAg2rlX0lrFLufOnatYsaKJf28QuRz87W/krN27Sye2E0nBjBnq7rtV5crXAwBESty3Lz3b922DgidHi3KuxOxs+m7Kfffp3kGLJUqQCkyaRN9iFLvYOXkybbx1q67wWAcHNod6IOxdg9gyOTkZf61djBx4g8jl4PJlGpiIe51w4ry4Z4+ODexij43ixUkdhg2j0UT+mVWxXz8qW7gzKSP+kfAjBejQgSYysl9m+fL0UDY1NYwxlDxBGxZcgpV75wW+PzsCe+ff1KlTEedsbNOmDS/bgeBHjvD+++9PmDABf6EUOTk5+jcDNxG5HACNG1M3QQQfRzhxQq1fr0aPpuk9ypS5IWxABBIko1s3alxMnUrtC8hEXjORu/TZlXvvpZIEnfrt9Gmy8+fhxo6lDtR69VTZsnrIkMVy5SgtGjSIyh/ZoxZubV17USi2cfHiRTQEsIDgt15/gtwg7HnZArcXoAgLFiyw8gUDbxCVHPDzRQS28ONwefAgPdIbOZKGMNSqRU/XrKCyE3kEYqxaNZoUpF07+vDRiBE0syiiLiNDPf88lQStD8QqkvDQIzA3l7719tprdN9G6wBxvnAhJSw44/Dh1Gro2pW+EJWcTLOh80sEgSxZkkqOLSFhaO1HP4UkRLZoUZJLv0FnDgVBbx0AxDnf6jnsA2/73EBITU01GYH3iEoOXnmFIsGl1/74Y43p6TQEoE8fik/k29Yzi9AJEbn1Vnp6X7kypet33EEteSzjaIhhsXH+hBZUr0686y4So/HjSThcauC88AKdEYlPPMGeGiDagw4lgh1qYjoLCgVRycGHH5LL4uYsXNlt7tlDD+eXL6fpSXr2VHXrUo8mbuC4lyLakboj+BHtUAEEcLFipAj2zvwSJej9K6T3rBHIOBIT6cl/1apE7N6iBe2Cm/O0aZS2IOmANokyuE1oDYr66qu6qt2Al30HAKcD1jER8EFjHkZvxjsbBCIqOQCQuiPk0JwW3uwZlywhIRDG6An5gKAIo5ds3Zrk4KOPdD3HARDnVjqAv1hmObD3EdjtBt4jWjng0XvWQDrvuWUL9TgIY5Q8cYIuCo0CYfeMp05Rs6hKFV3JsQ7OC5BuWN0B3EHAOYi9j4DtptegsBCtHPDIOTTvhUN7xr17qWdRGKMkGiO4qIYNpd0zoh2EAqSl6UqOdfA93970YIvQAgDbmJZCISJaOfj2W5pDtXBvpGj2C2OU3LqVorFxY2n3jPwp97NndSUbGHiDaOUAGDmSfDczU/q0Z6xThx5VCmM0XL2arsiNz8+HwtxcainUqKGr18DAMzggBwhFBE9KinTr2OXChXRFo0dLuzfkaRr9/6qClfADWLC6Aw1iFw7IwZUrNI6wbFl18qT07BjllCkUkIU1M1rLlnT2Cxd09foTdi1gGEWIAzggB8DEieTBM2ZIz45R8ssCbszIWiBffZXeBIEi+Bxjrg0uBPLqFzSIOTgjB++9R05cs2ZhDkBwkL16kRwUytdouRNxyxZdsf7EpUuXLl68qFeuAkJg5CAO4IwcAIMHkx/Pny/9OxbJ303O66Up97hrF70HVasWvS0aWzh37lybNm1MYyHW4Zgc/P73FEJJSfQFMeHlMcfERKIwekCefnL9el2lMQTrnWWDmIZjcgD070/eXChNbgfJQxKRIAi729y7l16UqFpV/ec/uj5jAtxxYPoR4wNOygEnCMh1Pe5BOH6c3kQSxoiZlUVXgTa8sLvNPn3ovCtX6sqMCYwZM+bqUwWCGU0YB3BSDoBhw8in3ZiPJH8mJ+sp3qPn4sV0CR4Pu163jk5at676/ntdkzEE7kcEAucyMYgtOCwHFy/Sa8UlSqjXX5ce7yo7dnTs4yv80HTWLGl3j0im+GNWfvtwe+jgV49MkyHW4bAcAKtWkWd36iSd3lUOHerYQw1+1OfsHMr5kwUIiVVMw/7+skGMwnk5uHKFpgmGf3v5jbb27WliMmGMjPwdNKeaHgVy3z5KpsqUocQqprEi2MSHBrEF5+UAePddGpWUmOjwm0X5cPlyxzr/0NgpXlwaXSKaCc2bk/qsXq2rLkbBMxqYYUixDlfkAJg9m7y8RQuPhiHs3u3MrAcHDlCxk5Kk3SWOHk2nQ14TWx9l5YeL9kcJaCkAvGwQu3BLDuDfPDf52LEyBlxi3bo0IbIwhsslS6jMaHoIuxtERoMcqnJl9cUXutJiBdbsRhZMXhAfcEsOAHg5fB0ev2qVjAQ36MgrBg8+SHKwcKG0O849e6i/oFgx9fbburoMDAodLsoBcPYsDcKH32dlyXjwJ/ltBTQZhN1ZHjqkP9OGBMHAwD9wVw4A/u5ohQr0fo6ICh/y5ptpYmhhdJbHj9Ps76iTgQN1FRkY+ASuywHAGXi1at49aIiM2dlUznbtpN1Bnj5N8z7jLK1aqW++0fVjYOATeCEHP/yg519v0CDCrxV6w4wMKmRqqrQ7xTNn6PMwOMVdd6mvvtKVY2DgH3ghB4whQygSmjVTx47JOPEJWbNWrpR2p8iTLKGl8Pnnuk4MDHwF7+Tg8mXVowfFQ6NG1JcmQsUP5MGUbuQvyAv4C/F16yozitfAt/BODoDvv1cDBlBU1KpFr/eLmImeWVmRz1OQm0sPQZo0kfboefKk6tCBrrphw5gfiWwQ3/BUDoAffqCBSYiNSpXUjh0ycqInQi6yRxj8XvNDD0l7lITKoH2EI7dubfoLDPwOr+WAMWcORUjZsmrTJhk/UXL4cDVzpjSGwkGDqEgbNkh7NNy/X9WvT4dFK+m77/S1Gxj4FoUjB8DatTRgsWRJh2cWwE0esSeMobBUKRp04OAbFuvX0wfjoQXDhtFbngYG/kehyQFw5IgqV07fPJFUi3CKjEePUjMk3KO9+CIVo21baY+YqamqaFEag7x0qb5YAwP/ozDlAPjoIwpChGKNGvShVBFUkXHgwLCnQuGWgiMTNOTk6IFGVaqot97Sl2lgEBMoZDkALl9WkydT/CBXHzfOga8boL3QrZs05s/y5ens0c/4Ons2DcfGtXTpoj77TF+ggUGsoPDlgHHgAM07gkCqVk2tWSPDLFzWrSst+XDDBjrvvfdKe1jcuVM/QShShHKT2Jq/wMCA4Rc5AD75RE/EDPbsSd3yIuRcYuvWdEbEs7CHSKQzY8dScoGDQBF+9zt9OQYGMQcfyQHj1Ck9W2GpUmrUKNffetq7l+7ntWtLeyiEEDzxBPVcorSJiZRl/PijvgoDg1iE7+QAuHyZevXKlKEwK1mSUobopznKi0OH0lnC7Xo8dkylpZEEYF+oSWqqGWJkEA/woxwwPvtMzZ2re+aQig8eTBMiirCMkgcO0CzG1auH0Yl45IiaMIG6HlGq4sWp7/ODD3SBDQxiHf6VA8bXX6sVKyhiEX5Fi6qWLdWTT9Jk5CJKIyN/Bw3HF/ZAHj1KGUTXruqWW2iX0qWpGJ98ogtpYBAf8LscWMCd/P77KRSZTZtSur5li4zb0MnTNA0YIO12Ih+ZOlXdc8/183bqpDZuVOZjAgZxiZiRAwaa6C++qF8QZKIB37MnjXTOq38BmUXgTI2rV1MzISmJXjcUPyERWLyY2iY1alw/S3KyeuYZ9fHHuhgGBnGJGJMDCxcuUEinpOgeRyaa9I0a0QiCUaPUtGk0MemGDerRR+kr6XPnUpwj2tevV50708YwLltGszynp1MXQO/eNEnR7bdfPxqILZ9+Wr3zjj6pgUF8I1blwI6336Zbd48e9LzQHswRsHJl+sgCpCQ318xlaPCTQzzIgcD//i89KdiyhW7s06dTF8PYsTQxWatW1AV42220MHo0ZQ1Tpqh58yhfOHJE/fWv5h1kg5864lAODAwMIoORAwMDAw0jBwYGBhpGDgwMDDSMHBgYGGgYOTAwMNAwcmBgYKBh5MDAwOAqlPp/SZGwFEKK8cMAAAAASUVORK5CYII=;" parent="7" vertex="1">
                    <mxGeometry x="390" y="250" width="376.52" height="150.18" as="geometry"/>
                </mxCell>
            </root>
        </mxGraphModel>
    </diagram>
</mxfile>